PathFileType	4	(X/Y/Z)	/Users/itak/Documents/Research/Walk-IL/dataset/trc/00354_00011.trc
DataRate	CameraRate	NumFrames	NumMarkers	Units	OrigDataRate	OrigDataStartFrame	OrigNumFrames
100.000000	100.000000	4	54	mm	100.000000	216	867
Frame#	Time	RPSI			LPSI			L3			STRN			T10			C7			CLAV			RBAK			LBAK			LSHO			LUPA			LAEL			LAOL			LWTS			LWPS			LFRA			LIFD			LHPS			LHTS			RSHO			RUPA			RAEL			RAOL			RWTS			RWPS			RFRA			RIFD			RHTS			RHPS			RBHD			LFHD			RFHD			LBHD			RHIP			RASI			LASI			LKNE			LTHI			LANK			LTIP			LTOE			LMT1			LMT5			LHEE			RKNE			RANK			RTIP			RTOE			RMT1			RMT5			RHEE			LHIP			RTHI			*53			
		X1	Y1	Z1	X2	Y2	Z2	X3	Y3	Z3	X4	Y4	Z4	X5	Y5	Z5	X6	Y6	Z6	X7	Y7	Z7	X8	Y8	Z8	X9	Y9	Z9	X10	Y10	Z10	X11	Y11	Z11	X12	Y12	Z12	X13	Y13	Z13	X14	Y14	Z14	X15	Y15	Z15	X16	Y16	Z16	X17	Y17	Z17	X18	Y18	Z18	X19	Y19	Z19	X20	Y20	Z20	X21	Y21	Z21	X22	Y22	Z22	X23	Y23	Z23	X24	Y24	Z24	X25	Y25	Z25	X26	Y26	Z26	X27	Y27	Z27	X28	Y28	Z28	X29	Y29	Z29	X30	Y30	Z30	X31	Y31	Z31	X32	Y32	Z32	X33	Y33	Z33	X34	Y34	Z34	X35	Y35	Z35	X36	Y36	Z36	X37	Y37	Z37	X38	Y38	Z38	X39	Y39	Z39	X40	Y40	Z40	X41	Y41	Z41	X42	Y42	Z42	X43	Y43	Z43	X44	Y44	Z44	X45	Y45	Z45	X46	Y46	Z46	X47	Y47	Z47	X48	Y48	Z48	X49	Y49	Z49	X50	Y50	Z50	X51	Y51	Z51	X52	Y52	Z52	X53	Y53	Z53	X54	Y54	Z54	

217	2.16	-126.5244827270508	955.6669921875	806.3099975585938	-220.5333251953125	960.6319580078125	896.3369140625	-160.2702484130859	1019.347351074219	844.38525390625	-335.3911437988281	1200.1572265625	685.7758178710938	-150.4170379638672	1138.3935546875	846.7857666015625	-191.3244323730469	1384.507202148438	819.39208984375	-304.3485412597656	1326.060302734375	714.3143920898438	-106.327766418457	1245.31201171875	801.8897705078125	-249.4439239501953	1348.899169921875	900.9724731445312	-350.4403076171875	1367.388061523438	889.3866577148438	-366.5918579101562	1258.5615234375	967.5958862304688	-351.7317199707031	1058.946655273438	1006.486572265625	-268.2992248535156	1057.834350585938	990.1116333007812	-357.383544921875	793.525146484375	979.5087890625	-357.4510803222656	802.0372924804688	1047.815063476562	-349.9653930664062	956.425537109375	1028.801879882812	-314.6306762695312	642.42138671875	1015.703796386719	-335.0003356933594	736.5680541992188	1064.357177734375	-356.0122680664062	716.4110107421875	1006.947692871094	-126.286506652832	1370.033081054688	660.7396240234375	-80.38756561279297	1305.44384765625	614.5347900390625	-101.5185699462891	1046.510131835938	533.4891357421875	-110.3275985717773	1021.388305664062	623.4537353515625	-315.8959045410156	933.7572631835938	478.2926940917969	-272.6249694824219	891.201171875	431.9970703125	-141.9102478027344	999.3592529296875	500.5207214355469	-428.0284118652344	812.8631591796875	427.6873779296875	-390.4146423339844	877.8448486328125	427.4890441894531	-336.1270446777344	839.2003173828125	407.1714172363281	-172.8818511962891	1587.10693359375	722.6043701171875	-375.1563720703125	1589.908203125	671.8232421875	-292.756103515625	1585.700927734375	612.6925659179688	-272.1732482910156	1590.57275390625	827.868408203125	-103.0689315795898	894.4058837890625	676.2142333984375	-204.4006805419922	921.2144165039062	627.0231323242188	-392.6253356933594	932.910888671875	774.6652221679688	-518.1119384765625	486.2274169921875	790.2195434570312	-477.9043579101562	609.4641723632812	827.9698486328125	-624.1345825195312	62.30215835571289	759.2225341796875	-582.2483520507812	277.589111328125	786.7847900390625	-698.10546875	140.5695953369141	573.5739135742188	-626.640380859375	105.4080581665039	593.8146362304688	-708.4842529296875	102.736572265625	673.280029296875	-552.4431762695312	45.07688903808594	739.126708984375	-182.4836273193359	430.6747436523438	724.6408081054688	-123.4225463867188	51.15411376953125	884.4711303710938	-196.372314453125	311.5843811035156	763.9986572265625	-315.2027587890625	45.00035858154297	829.6397094726562	-289.4883422851562	42.07167816162109	893.6223754882812	-198.9197845458984	38.73714065551758	816.7081298828125	-106.0349502563477	56.99545669555664	950.5946044921875	-358.8682556152344	909.4321899414062	904.5814819335938	-170.8134765625	680.8566284179688	648.720703125	nan	nan	nan	
218	2.17	-134.2662506103516	953.9473876953125	802.5779418945312	-229.724609375	958.6035766601562	891.1497802734375	-168.7670745849609	1017.130493164062	839.9462280273438	-341.0641479492188	1197.979370117188	678.955322265625	-158.6268920898438	1136.131713867188	842.6295166015625	-199.0284729003906	1382.293334960938	814.5213623046875	-310.46142578125	1323.938110351562	707.9225463867188	-113.7070617675781	1243.053344726562	798.3731079101562	-257.9014282226562	1346.66552734375	895.5125732421875	-358.8622436523438	1365.078491210938	882.517333984375	-375.8720397949219	1256.19189453125	960.5748291015625	-361.2883911132812	1056.571655273438	999.739501953125	-277.8036804199219	1055.351196289062	983.9608764648438	-366.9967956542969	790.9109497070312	972.4692993164062	-367.6244812011719	799.7100219726562	1040.9521484375	-359.8236389160156	954.0572509765625	1022.051940917969	-325.6656494140625	639.9671630859375	1008.871704101562	-345.5751647949219	734.1640014648438	1057.472290039062	-366.5918884277344	714.2484130859375	1000.0458984375	-131.5910339355469	1367.783935546875	656.9136352539062	-85.02155303955078	1303.118896484375	611.38134765625	-105.5878295898438	1044.182739257812	529.9727172851562	-115.1390533447266	1018.965087890625	619.885498046875	-320.3543090820312	933.0349731445312	473.6086120605469	-277.2542114257812	890.3106689453125	427.3175659179688	-146.0213928222656	997.3413696289062	496.726318359375	-433.2142333984375	813.1526489257812	422.2517395019531	-395.1191101074219	877.8211059570312	422.3955993652344	-341.0807495117188	838.87841796875	402.0779113769531	-179.0896453857422	1585.0048828125	718.1726684570312	-380.7139282226562	1588.079467773438	664.8418579101562	-297.545654296875	1583.775512695312	606.7225341796875	-279.6194152832031	1588.531982421875	822.103515625	-108.7171249389648	892.9161376953125	672.7740478515625	-209.3590698242188	919.4008178710938	621.951416015625	-399.7914733886719	930.4905395507812	766.8598022460938	-525.4981689453125	483.842529296875	782.2791137695312	-485.6783447265625	606.5098266601562	821.311279296875	-638.8614501953125	62.76956176757812	735.5887451171875	-593.0674438476562	277.1423034667969	772.1093139648438	-709.0814819335938	149.3329162597656	551.7562866210938	-638.2957153320312	113.0156784057617	571.8589477539062	-721.7328491210938	107.139892578125	649.7369384765625	-566.8319091796875	46.22509002685547	715.8240356445312	-186.0372314453125	429.2005004882812	721.1502685546875	-123.6201324462891	51.52467346191406	884.6076049804688	-199.0732574462891	310.2118835449219	761.5467529296875	-315.3671569824219	44.77584075927734	829.5555419921875	-289.6109008789062	42.06814193725586	893.52197265625	-198.9744110107422	38.7271842956543	816.6932373046875	-106.3715362548828	57.91412353515625	950.5782470703125	-368.0408935546875	906.8251342773438	897.3389282226562	-174.8818054199219	679.1350708007812	644.7294311523438	nan	nan	nan	
219	2.18	-142.0289459228516	952.1417236328125	798.7384643554688	-238.8469696044922	956.4098510742188	885.8946533203125	-177.2108154296875	1014.8818359375	835.4459228515625	-346.7578430175781	1195.762329101562	672.0919189453125	-166.8626556396484	1133.86767578125	838.35693359375	-206.8067016601562	1380.087890625	809.5786743164062	-316.6500854492188	1321.769287109375	701.4884033203125	-121.203239440918	1240.791870117188	794.7797241210938	-266.4264221191406	1344.421508789062	889.9722290039062	-367.3392333984375	1362.713134765625	875.5559692382812	-385.2627258300781	1253.697875976562	953.4014282226562	-371.0636901855469	1054.03759765625	992.7593383789062	-287.5215148925781	1052.698364257812	977.663818359375	-377.0321044921875	788.3292236328125	965.13818359375	-378.0894470214844	797.2286376953125	1033.727783203125	-369.9255981445312	951.5322265625	1015.036010742188	-337.0076293945312	637.3721923828125	1001.598083496094	-356.4693603515625	731.5888061523438	1050.211303710938	-377.4762573242188	711.9476318359375	992.73095703125	-136.9711151123047	1365.498657226562	652.9973754882812	-89.72902679443359	1300.735107421875	608.1920166015625	-109.5460357666016	1041.709106445312	526.6629028320312	-119.8987350463867	1016.504089355469	616.5280151367188	-324.4732055664062	931.718994140625	469.0380554199219	-281.4071350097656	888.8303833007812	422.8678283691406	-149.9402770996094	995.0596313476562	493.150634765625	-437.8012084960938	812.6065063476562	416.9515991210938	-399.3188781738281	877.0108032226562	417.4094848632812	-345.4360961914062	837.8269653320312	397.2132263183594	-185.3652801513672	1582.907348632812	713.7044677734375	-386.3160705566406	1586.264526367188	657.7786254882812	-302.3851928710938	1581.867919921875	600.7030639648438	-287.1377258300781	1586.478393554688	816.2644653320312	-114.5250778198242	891.3790893554688	669.2000732421875	-214.5017242431641	917.5674438476562	616.8091430664062	-406.9264526367188	928.0927734375	759.1629638671875	-533.052734375	481.6134643554688	773.6478271484375	-493.9449768066406	603.9578247070312	813.895263671875	-651.5120849609375	63.10705947875977	713.8963623046875	-602.9168701171875	276.5771179199219	757.9573974609375	-718.7319946289062	156.4795379638672	531.8458862304688	-648.4547729492188	119.3799743652344	551.7783203125	-733.2300415039062	110.619743347168	628.2174682617188	-579.150390625	47.36327743530273	694.40234375	-189.512451171875	427.7571411132812	717.7618408203125	-123.9051971435547	51.96741104125977	884.7980346679688	-201.6965942382812	308.9109191894531	759.1358032226562	-315.5328369140625	44.58093643188477	829.457275390625	-289.7604675292969	42.07902145385742	893.4221801757812	-199.0441131591797	38.7443962097168	816.6869506835938	-106.7876663208008	58.9560661315918	950.6491088867188	-377.1101989746094	904.2508544921875	890.1580810546875	-179.0355224609375	677.4116821289062	640.6975708007812	nan	nan	nan	
220	2.19	-149.8069152832031	950.2781372070312	794.7835083007812	-247.8854064941406	954.0955810546875	880.5984497070312	-185.5748443603516	1012.640441894531	830.8965454101562	-352.4797973632812	1193.543579101562	665.1939697265625	-175.0969390869141	1131.640869140625	833.9683837890625	-214.6484680175781	1377.9248046875	804.5514526367188	-322.9057312011719	1319.5947265625	695.0066528320312	-128.8209075927734	1238.56689453125	791.0938110351562	-275.0133666992188	1342.211669921875	884.349853515625	-375.8631591796875	1360.340087890625	868.511474609375	-394.7592468261719	1251.12353515625	946.0753173828125	-381.0691528320312	1051.387817382812	985.5107421875	-297.465087890625	1049.920288085938	971.2072143554688	-387.4462585449219	785.7988891601562	957.4920654296875	-388.8601684570312	794.6295776367188	1026.11328125	-380.2878112792969	948.8843383789062	1007.715270996094	-348.6129760742188	634.6820068359375	993.9034423828125	-367.6943359375	728.8866577148438	1042.56689453125	-388.6169738769531	709.5260620117188	984.9740600585938	-142.4403991699219	1363.212646484375	648.97021484375	-94.5316162109375	1298.330444335938	604.9448852539062	-113.4039993286133	1039.1240234375	523.5660400390625	-124.6229400634766	1014.050720214844	613.3958740234375	-328.2522277832031	929.811767578125	464.5816650390625	-285.0739440917969	886.7609252929688	418.6596069335938	-153.6719818115234	992.5390014648438	489.8043823242188	-441.7824401855469	811.2106323242188	411.7744140625	-403.0089416503906	875.4112548828125	412.5157775878906	-349.178955078125	836.0402221679688	392.5808715820312	-191.7069549560547	1580.846069335938	709.1784057617188	-391.9589538574219	1584.4853515625	650.6311645507812	-307.2748718261719	1580.0048828125	594.6292114257812	-294.7300720214844	1584.44091796875	810.347900390625	-120.4965744018555	889.823974609375	665.480712890625	-219.8618316650391	915.7490844726562	611.5855102539062	-414.0446472167969	925.77001953125	751.5881958007812	-540.8389892578125	479.6246643066406	764.1510009765625	-502.6476440429688	601.8961791992188	805.5517578125	-662.1996459960938	63.13451766967773	694.4603881835938	-611.9154052734375	275.8344421386719	744.3148193359375	-727.0327758789062	161.5413208007812	513.822998046875	-657.102294921875	124.0071868896484	533.6906127929688	-743.01953125	112.9121322631836	608.8502197265625	-589.5249633789062	48.17383575439453	675.2717895507812	-192.898681640625	426.3778991699219	714.4887084960938	-124.2889175415039	52.50114822387695	885.0309448242188	-204.2301635742188	307.7067565917969	756.77978515625	-315.6972961425781	44.41929626464844	829.343505859375	-289.9393310546875	42.10967254638672	893.322265625	-199.1379241943359	38.80180358886719	816.6864624023438	-107.2763824462891	60.14594268798828	950.7999877929688	-386.0594177246094	901.762939453125	883.0427856445312	-183.2881011962891	675.7230224609375	636.6441040039062	nan	nan	nan	
